# xmcd
#
# Track frame offsets: 
#        150
#        17313
#        41493
#        62751
#        85909
#        98587
#        122213
#        153813
#        177178
#        201087
#        218573
#        243124
#        259736
#        283644
#
# Disc length: 4128 seconds
#
# Revision: 0
# Processed by: cddbd v1.5.2PL0 Copyright (c) Steve Scherf et al.
# Submitted via: ExactAudioCopyFreeDBPlugin 1.0
#
DISCID=ad101e0e
DTITLE=Kid and Lisa Anderson - Greatest Hits
DYEAR=2017
DGENRE=Blues
TTITLE0=Work To Do
TTITLE1=Fooled Around And Fell In Love
TTITLE2=I Like It
TTITLE3=River's Invitation
TTITLE4=Jesus Will Save
TTITLE5=Hands Of Time
TTITLE6=Don't Answer The Door
TTITLE7=What A Man
TTITLE8=Mr Bojangles
TTITLE9=Greaseland Shuffle
TTITLE10=Superman Lover
TTITLE11=Saving All My Love
TTITLE12=Mean Old World
TTITLE13=Free
EXTD=
EXTT0=
EXTT1=
EXTT2=
EXTT3=
EXTT4=
EXTT5=
EXTT6=
EXTT7=
EXTT8=
EXTT9=
EXTT10=
EXTT11=
EXTT12=
EXTT13=
PLAYORDER=
